<?xml version="1.0" encoding="utf-8"?>
<!-- Generator: Adobe Illustrator 24.3.0, SVG Export Plug-In . SVG Version: 6.00 Build 0)  -->
<svg version="1.1" id="_x31_" xmlns="http://www.w3.org/2000/svg" xmlns:xlink="http://www.w3.org/1999/xlink" x="0px" y="0px"
	 width="1200px" height="1200px" viewBox="0 0 1200 1200" enable-background="new 0 0 1200 1200" xml:space="preserve">
<g>
	<path fill="#FFFFFF" d="M839.66,52.725H296.127c-63.946,0-115.785,51.839-115.785,115.785v859.743
		c0,65.734,53.288,119.021,119.021,119.021h601.274c65.734,0,119.021-53.288,119.021-119.021V239.802L839.66,52.725z"/>
	<linearGradient id="SVGID_1_" gradientUnits="userSpaceOnUse" x1="374.1526" y1="650.3186" x2="657.4055" y2="938.2042">
		<stop  offset="0" style="stop-color:#91BFD4"/>
		<stop  offset="0.485" style="stop-color:#FFFFFF"/>
		<stop  offset="1" style="stop-color:#FFFFFF"/>
	</linearGradient>
	<path fill="url(#SVGID_1_)" d="M375.827,520.651L719.97,869.132c0,0-53.513,41.964-190.85,17.35S308.991,680.451,316.581,641.413
		S375.827,520.651,375.827,520.651z"/>
	<linearGradient id="SVGID_2_" gradientUnits="userSpaceOnUse" x1="381.4353" y1="1012.917" x2="835.0216" y2="1012.917">
		<stop  offset="0" style="stop-color:#91BFD4"/>
		<stop  offset="0.485" style="stop-color:#FFFFFF"/>
		<stop  offset="1" style="stop-color:#FFFFFF"/>
	</linearGradient>
	<path fill="url(#SVGID_2_)" d="M381.435,851.992l329.859,321.851c0,0,127.957-32.531,123.619-30.363
		c-4.337,2.169-256.997-270.01-256.997-270.01s-70.485,10.844-116.028,3.253S381.435,851.992,381.435,851.992z"/>
	<linearGradient id="SVGID_3_" gradientUnits="userSpaceOnUse" x1="1065.3112" y1="1027.0924" x2="800.6655" y2="779.6491">
		<stop  offset="0.0411" style="stop-color:#FFFFFF"/>
		<stop  offset="0.5125" style="stop-color:#FFFFFF"/>
		<stop  offset="0.5888" style="stop-color:#F6FAFC"/>
		<stop  offset="0.7112" style="stop-color:#DFECF2"/>
		<stop  offset="0.8633" style="stop-color:#B9D6E4"/>
		<stop  offset="1" style="stop-color:#91BFD4"/>
	</linearGradient>
	<path fill="url(#SVGID_3_)" d="M892.386,532.975l146.391,166.994c0,0,23.856,364.351-68.316,412.063
		c-92.172,47.713-145.408,22.851-145.408,22.851L609.7,907.634c0,0,143.886-41.755,194.851-137.18
		C855.517,675.029,892.386,532.975,892.386,532.975z"/>
	<linearGradient id="SVGID_4_" gradientUnits="userSpaceOnUse" x1="647.2059" y1="564.1495" x2="913.0824" y2="621.9241">
		<stop  offset="0" style="stop-color:#91BFD4"/>
		<stop  offset="0.1367" style="stop-color:#B9D6E4"/>
		<stop  offset="0.2888" style="stop-color:#DFECF2"/>
		<stop  offset="0.4112" style="stop-color:#F6FAFC"/>
		<stop  offset="0.4875" style="stop-color:#FFFFFF"/>
		<stop  offset="0.9589" style="stop-color:#FFFFFF"/>
	</linearGradient>
	<path fill="url(#SVGID_4_)" d="M721.235,266.559l171.151,189.425c0,0,7.771,250.491-85.576,345.916S627.315,873.47,627.315,873.47
		l-143.74-155.066c0,0,214.707,6.506,241.816-72.653s23.856-190.609,23.856-249.286S721.235,266.559,721.235,266.559z"/>
	<linearGradient id="SVGID_5_" gradientUnits="userSpaceOnUse" x1="600" y1="1187.6229" x2="600" y2="12.3771">
		<stop  offset="0" style="stop-color:#073251"/>
		<stop  offset="0.3664" style="stop-color:#083352"/>
		<stop  offset="1" style="stop-color:#296084"/>
	</linearGradient>
	<path fill="url(#SVGID_5_)" d="M856.829,12.377H268.583c-71.018,0-128.589,57.571-128.589,128.589v914.832
		c0,72.805,59.02,131.824,131.824,131.824h656.364c72.805,0,131.824-59.02,131.824-131.824V239.416
		c0-13.78-5.433-27.004-15.121-36.804L856.829,12.377z M880.007,152.852l62.985,65.462l-62.985-0.407V152.852z M979.311,294.145
		v713.941c0,54.589-44.253,98.841-98.841,98.841H319.531c-54.589,0-98.841-44.253-98.841-98.841V188.679
		c0-52.802,42.804-95.606,95.606-95.606h483.016v132.68c0,37.772,30.62,68.393,68.393,68.393H979.311z"/>
	<g>
		<linearGradient id="SVGID_6_" gradientUnits="userSpaceOnUse" x1="594.5435" y1="782.7435" x2="594.5435" y2="208.7465">
			<stop  offset="0" style="stop-color:#073251"/>
			<stop  offset="0.3664" style="stop-color:#083352"/>
			<stop  offset="1" style="stop-color:#296084"/>
		</linearGradient>
		<path fill="url(#SVGID_6_)" d="M594.544,208.747L594.544,208.747c-92.628,0-167.717,75.089-167.717,167.717v238.563
			c0,92.627,75.089,167.717,167.717,167.717h0c92.627,0,167.717-75.089,167.717-167.717V376.463
			C762.26,283.836,687.171,208.747,594.544,208.747z M538.397,611.664H477.19c-12.909,0-23.374-10.465-23.374-23.374
			c0-12.909,10.465-23.374,23.374-23.374h61.207c12.909,0,23.374,10.465,23.374,23.374
			C561.771,601.198,551.306,611.664,538.397,611.664z M561.771,492.377c0,12.909-10.465,23.374-23.374,23.374H477.19
			c-12.909,0-23.374-10.465-23.374-23.374v0c0-12.909,10.465-23.374,23.374-23.374h61.207
			C551.306,469.002,561.771,479.467,561.771,492.377L561.771,492.377z M538.397,419.839H477.19
			c-12.909,0-23.374-10.465-23.374-23.374c0-12.909,10.465-23.374,23.374-23.374h61.207c12.909,0,23.374,10.465,23.374,23.374
			C561.771,409.374,551.306,419.839,538.397,419.839z M711.897,611.664H650.69c-12.909,0-23.374-10.465-23.374-23.374
			c0-12.909,10.465-23.374,23.374-23.374h61.207c12.909,0,23.374,10.465,23.374,23.374
			C735.271,601.198,724.806,611.664,711.897,611.664z M735.271,492.377c0,12.909-10.465,23.374-23.374,23.374H650.69
			c-12.909,0-23.374-10.465-23.374-23.374v0c0-12.909,10.465-23.374,23.374-23.374h61.207
			C724.806,469.002,735.271,479.467,735.271,492.377L735.271,492.377z M711.897,419.839H650.69
			c-12.909,0-23.374-10.465-23.374-23.374c0-12.909,10.465-23.374,23.374-23.374h61.207c12.909,0,23.374,10.465,23.374,23.374
			C735.271,409.374,724.806,419.839,711.897,419.839z"/>
		<linearGradient id="SVGID_7_" gradientUnits="userSpaceOnUse" x1="594.182" y1="1106.9271" x2="594.182" y2="499.3596">
			<stop  offset="0" style="stop-color:#073251"/>
			<stop  offset="1" style="stop-color:#083352"/>
		</linearGradient>
		<path fill="url(#SVGID_7_)" d="M849.553,499.36c-23.656,0-42.833,19.177-42.833,42.833v102.474
			c0,117.381-95.156,212.538-212.538,212.538h-0.001c-117.381,0-212.538-95.156-212.538-212.538V542.192
			c0-23.656-19.177-42.833-42.833-42.833c-23.656,0-42.833,19.177-42.833,42.833v103.558c0,149.47,112.429,272.661,257.329,289.672
			v171.505h93.256V933.846c139.303-22.008,245.822-142.606,245.822-288.096V542.192C892.386,518.536,873.209,499.36,849.553,499.36z
			"/>
	</g>
</g>
</svg>
