<?xml version="1.0" encoding="utf-8"?>
<svg viewBox="0.0001 0 1000.0002 1000" width="1000" height="1000" xmlns="http://www.w3.org/2000/svg">
  <path d="M 969.504 524.261 C 965.204 524.261 960.944 523.247 957.024 521.298 L 695.226 390.158 C 689.886 387.493 685.306 383.079 682.106 377.571 C 678.906 372.043 677.206 365.6 677.206 359.018 C 677.206 352.416 678.906 345.994 682.106 340.446 C 685.306 334.938 689.886 330.543 695.226 327.859 L 957.024 197.158 C 964.424 193.519 972.824 193.241 980.344 196.502 C 987.904 199.723 994.004 206.146 997.324 214.438 C 1000.584 222.688 1000.824 232.054 997.924 240.525 C 995.024 248.956 989.244 255.776 981.884 259.495 L 782.405 359.058 L 981.904 458.999 C 988.284 462.18 993.484 467.688 996.644 474.648 C 999.864 481.608 1000.804 489.582 999.304 497.237 C 997.884 504.893 994.124 511.753 988.664 516.645 C 983.264 521.556 976.484 524.241 969.504 524.261 Z" fill="#67BECE" style="transform-origin: 0.013px 0px;"/>
  <path d="M 612.766 1000 C 324.948 1000 73.329 782.662 0.989 471.447 C -1.051 462.678 0.089 453.391 4.189 445.596 C 8.269 437.782 14.969 432.154 22.809 429.848 C 30.649 427.581 38.949 428.853 45.909 433.447 C 52.889 438 57.949 445.497 59.989 454.266 C 91.909 591.034 163.469 712.13 263.488 798.55 C 363.528 884.969 486.367 931.817 612.766 931.758 C 620.846 931.758 628.606 935.377 634.326 941.76 C 640.046 948.143 643.246 956.813 643.246 965.86 C 643.246 974.908 640.046 983.597 634.326 989.98 C 628.606 996.401 620.846 1000 612.766 1000 Z" fill="#3F54A3" style="transform-origin: 0.013px 0px;"/>
  <path d="M 507.707 716.684 C 499.587 716.684 491.867 713.065 486.127 706.682 C 480.407 700.259 477.207 691.569 477.207 682.542 L 477.207 34.103 C 477.207 25.055 480.407 16.365 486.127 9.982 C 491.867 3.599 499.587 0 507.707 0 C 515.787 0 523.527 3.599 529.267 9.982 C 534.987 16.365 538.187 25.055 538.187 34.103 L 538.187 682.581 C 538.187 691.609 534.967 700.299 529.247 706.702 C 523.527 713.065 515.787 716.684 507.707 716.684 Z" fill="#67BECE" style="transform-origin: 0.013px 0px;"/>
</svg>