<svg width="188" height="188" viewBox="0 0 188 188" fill="none" xmlns="http://www.w3.org/2000/svg">
<circle cx="94" cy="94" r="91" fill="#0D1017"/>
<path fill-rule="evenodd" clip-rule="evenodd" d="M0 94C0 42.1664 42.1664 0 94 0C145.834 0 188 42.1664 188 94C188 145.834 145.834 188 94 188C42.1664 188 0 145.834 0 94ZM165.825 66.3028C165.536 65.5139 164.973 64.8564 164.248 64.4409L164.227 64.4357C163.501 64.0254 162.649 63.8781 161.823 64.0254C160.997 64.1779 160.25 64.6145 159.714 65.2562C159.177 65.8978 158.888 66.7131 158.888 67.5546C158.893 67.9806 158.967 68.3962 159.114 68.8064C162.07 76.6643 163.564 84.9114 163.559 93.311C163.559 110.31 157.378 126.673 146.154 139.38C135.151 151.84 120.098 159.929 103.704 162.212V130.512C105.371 130.17 107.028 129.729 108.643 129.187V156.621L109.295 156.463C123.207 153.081 135.814 145.024 144.787 133.763C154.033 122.16 158.925 108.175 158.925 93.3163C158.941 81.7083 155.837 70.2896 149.947 60.2911C144.061 50.2873 135.577 42.0349 125.421 36.4176C124.99 36.1862 124.532 36.0442 124.048 35.9969C123.564 35.9495 123.086 36.0021 122.623 36.1494C122.16 36.2967 121.739 36.5333 121.371 36.8489C121.003 37.1698 120.708 37.5485 120.493 37.9903C120.256 38.4794 120.13 39.0212 120.13 39.5629C120.13 40.1993 120.298 40.8252 120.619 41.3722C120.94 41.9192 121.403 42.3768 121.96 42.6871C131.007 47.6838 138.56 55.0262 143.809 63.9255C149.058 72.8248 151.83 82.9916 151.83 93.3215C151.83 105.161 148.274 116.543 141.536 126.247C135.114 135.504 126.263 142.62 115.901 146.87V123.638C117.579 123.049 119.052 122.018 120.193 120.645C121.413 119.173 122.171 117.39 122.391 115.491C122.612 113.587 122.276 111.678 121.418 109.968C120.614 108.359 119.393 107.012 117.879 106.055C119.266 93.3095 123.322 90.7899 126.293 88.9442L126.299 88.9402C128.067 87.8462 129.592 86.8995 129.592 84.1435V80.2198C129.592 76.1541 125.552 66.6657 116.527 54.6422C104.03 37.9955 96.9033 36.2546 95.0309 36.1178C94.3287 36.0466 93.72 36.0787 93.0476 36.1142L92.9796 36.1178C91.0914 36.2546 83.9646 37.9955 71.452 54.6422C62.4107 66.6657 58.3661 76.1541 58.3661 80.2198V84.1329C58.3661 86.889 59.8913 87.8357 61.6586 88.9297C64.6303 90.7706 68.6907 93.29 70.0792 106.039C68.717 106.891 67.5809 108.075 66.7814 109.474C65.9294 110.973 65.4876 112.677 65.5034 114.397C65.5034 118.463 68.1805 122.207 72.0621 123.633V146.87C61.7006 142.625 52.854 135.509 46.4267 126.247C39.6944 116.548 36.1284 105.161 36.1284 93.3268C36.1284 72.3041 47.5838 52.9013 66.0241 42.6871C66.7131 42.3032 67.2601 41.6983 67.5704 40.9725C67.8807 40.2466 67.9438 39.4314 67.744 38.6688C67.5494 37.9061 67.097 37.2224 66.4764 36.7385C65.8558 36.2546 65.0826 35.9863 64.2936 35.9863H64.2884C63.694 35.9863 63.105 36.1389 62.5895 36.4282C52.4279 42.0402 43.9389 50.2925 38.0429 60.2911C32.1468 70.2896 29.0331 81.7135 29.0436 93.3215C29.0436 108.185 33.9351 122.171 43.1815 133.773C52.1597 145.034 64.7617 153.092 78.6735 156.474L79.3257 156.632V129.203C80.9404 129.744 82.5971 130.191 84.2644 130.528V162.228C67.8702 159.94 52.8171 151.845 41.814 139.391C30.59 126.683 24.4047 110.326 24.4047 93.3215C24.3994 84.9219 25.8984 76.6748 28.8648 68.8169C29.0279 68.3751 29.1015 67.9123 29.0857 67.4442C29.0699 66.9761 28.9595 66.5185 28.7649 66.0924C28.5703 65.6664 28.2968 65.2877 27.9496 64.9669C27.6025 64.646 27.208 64.3988 26.7662 64.2358C26.3244 64.0727 25.8616 63.9991 25.3935 64.0149C24.9254 64.0307 24.4678 64.1411 24.0417 64.3357C23.6157 64.5303 23.237 64.8038 22.9162 65.151C22.5953 65.4981 22.3481 65.8978 22.1851 66.3344C17.9511 77.6478 16.4416 89.9764 17.8143 101.979C19.1871 113.981 23.4474 125.647 30.1271 135.714C36.8069 145.781 45.906 154.238 56.4305 160.166C66.9603 166.094 78.9049 169.491 90.9757 169.986L91.5227 170.007V131.438C92.5799 131.485 93.9158 131.512 94 131.512C94.0195 131.51 94.1421 131.507 94.3319 131.503C94.8076 131.492 95.7058 131.472 96.4615 131.438V170.007L97.0085 169.986C109.079 169.476 121.019 166.073 131.543 160.14C142.068 154.202 151.162 145.749 157.841 135.683C164.521 125.616 168.787 113.955 170.165 101.953C171.548 89.9501 170.044 77.6215 165.825 66.3028ZM80.2729 117.561C81.0093 116.462 81.3407 115.136 81.2144 113.822C81.0882 112.507 80.5044 111.271 79.5734 110.334C79.0422 109.798 78.4163 109.377 77.7168 109.088C77.0172 108.799 76.2809 108.651 75.5288 108.651H75.5235C74.2033 108.651 72.9147 109.114 71.8944 109.95C70.874 110.787 70.1692 111.96 69.9115 113.259C69.6538 114.553 69.8536 115.91 70.4743 117.072C71.0949 118.234 72.11 119.155 73.3302 119.665C74.5505 120.17 75.918 120.238 77.1803 119.86C78.4426 119.476 79.5471 118.666 80.2782 117.566L80.2729 117.561ZM117.542 111.721C116.921 110.553 115.911 109.633 114.691 109.128C113.992 108.833 113.24 108.686 112.487 108.686C111.935 108.686 111.378 108.765 110.841 108.928C109.579 109.307 108.474 110.122 107.738 111.216C107.002 112.31 106.665 113.641 106.791 114.95C106.918 116.265 107.496 117.501 108.427 118.437C108.958 118.974 109.584 119.395 110.284 119.689C110.983 119.979 111.72 120.126 112.477 120.126H112.482C113.802 120.126 115.086 119.668 116.106 118.832C117.126 117.996 117.831 116.823 118.094 115.529C118.352 114.235 118.157 112.878 117.537 111.716L117.542 111.721Z" fill="#FFFCC3"/>
</svg>
