<svg width="256" height="274" viewBox="0 0 256 274" fill="none" xmlns="http://www.w3.org/2000/svg">
<path d="M94.9598 142.613C92.0563 142.656 90.6046 142.673 87.7011 142.725C87.3036 146.622 87.1134 148.567 86.716 152.455C89.6886 152.317 91.1749 152.256 94.1475 152.144C94.2685 152.144 94.3981 152.084 94.4068 151.945C94.7178 148.29 94.8647 146.458 95.1758 142.794C95.1845 142.647 95.0721 142.604 94.9512 142.604L94.9598 142.613Z" fill="#27272A"/>
<path d="M163.503 120.828H167.504C167.573 120.828 167.634 120.759 167.634 120.69C167.227 114.459 167.02 111.348 166.605 105.118C166.605 105.014 166.527 104.988 166.467 104.988H162.578C162.475 104.988 162.449 105.023 162.449 105.118C162.812 111.348 163.002 114.459 163.365 120.69C163.365 120.759 163.408 120.828 163.512 120.828H163.503Z" fill="#27272A"/>
<path d="M237.412 126.039H237.343C239.573 100.823 237.499 82.7108 237.499 82.7108C224.718 74.8039 211.929 68.297 199.14 63.1554C199.589 58.1953 198.483 49.649 190.585 37.0758C187.794 32.6255 179.628 21.314 164.246 12.3702C159.321 9.50127 154.049 7.13354 148.588 5.31886C146.151 4.50657 143.619 3.79798 141.087 3.21037C134.529 1.68949 127.624 0.92041 120.564 0.92041C117.522 0.92041 114.411 1.06731 111.309 1.34384C101.216 2.26846 91.6674 4.63619 82.931 8.3779C75.897 11.3937 69.3728 15.2996 63.5398 19.9919C54.9503 26.9136 50.3877 33.4983 49.0224 35.65C47.8731 37.1622 46.6114 39.7287 46.7151 43.6951C46.862 49.3293 49.5409 56.1473 54.6825 64.0195C42.6191 69.0142 30.5645 75.2274 18.5011 82.6849C18.5011 82.6849 16.4272 100.797 18.6567 126.013H18.19L0 202.592C0 202.592 0.0604895 202.566 0.0950548 202.549L0 202.696L15.7013 210.05C17.7839 209.22 19.8751 208.425 21.9577 207.639L26.8141 224.083L67.9729 240.96C83.0952 255.106 102.677 266.547 127.996 273.08C154.732 266.184 175.074 253.81 190.516 238.558L229.099 224.351L234.051 207.587C236.125 208.391 238.19 209.203 240.264 210.05L256 203.845C249.804 177.904 243.608 151.971 237.412 126.03V126.039ZM194.154 74.9595C203.824 78.8395 213.545 83.549 223.223 89.0967L225.263 90.2633L225.366 92.6138C225.695 100.253 225.79 112.083 224.494 126.039H205.604L216.302 121.701C216.794 115.392 217.002 109.594 217.036 104.539V99.6738C217.002 98.127 216.967 96.6752 216.924 95.3272C207.557 90.0819 198.163 85.6402 188.839 82.0281C190.957 79.574 192.719 77.163 194.145 74.9509L194.154 74.9595ZM201.093 175.873C196.902 175.165 194.802 174.828 190.602 174.223C186.627 173.644 183.594 171.077 183.179 167.828C181.892 157.649 181.244 152.559 179.947 142.379C179.541 139.182 181.805 136.961 185.469 136.961C189.349 136.961 191.285 136.961 195.165 136.961C199.045 136.961 201.827 139.415 202.389 142.941C203.893 152.308 205.396 161.675 206.891 171.034C207.47 174.62 205.12 176.556 201.093 175.873ZM190.706 124.708H186.826C184.424 119.246 183.248 116.516 180.933 111.063C180.872 110.873 180.846 110.778 180.786 110.588C181.287 116.239 181.546 119.056 182.047 124.708H177.822C177.044 115.271 176.655 110.553 175.877 101.117H180.267C182.237 105.939 183.231 108.358 185.262 113.18C185.322 113.379 185.348 113.483 185.409 113.681C184.925 108.652 184.683 106.137 184.19 101.108H188.252C189.228 110.545 189.721 115.263 190.697 124.699L190.706 124.708ZM70.3319 28.711C78.2301 22.3855 91.8576 14.4528 111.931 12.6122C123.563 11.5406 134.554 12.6899 144.622 16.0255C149.331 17.5809 153.894 19.6462 158.206 22.1522C171.427 29.843 178.332 39.3831 180.682 43.1248C183.914 48.275 186.057 52.9413 187.033 57.0028C187.103 57.2879 187.154 57.5472 187.206 57.8151C186.04 57.1497 184.674 56.4238 183.076 55.6374C182.877 55.5424 182.669 55.4387 182.462 55.3436C181.408 52.3624 179.749 49.0354 177.459 45.3974C177.079 44.7839 176.551 43.9975 175.895 43.0902C176.059 45.8554 176.007 48.949 175.627 52.3537C172.291 51.0143 168.264 49.5366 163.434 47.9812L164.039 45.648L159.908 44.5765L159.355 46.7109C157.385 46.1147 155.311 45.5098 153.107 44.8962L153.773 42.2347L149.634 41.2064L148.994 43.7901C146.868 43.2285 144.656 42.6668 142.323 42.0964L142.876 39.4176L138.702 38.5535L138.167 41.1373C135.851 40.6274 133.569 40.1608 131.314 39.7374L131.746 37.0931L127.538 36.4018L127.114 38.9942C124.781 38.6053 122.474 38.251 120.218 37.9486L120.521 35.5895L116.295 35.0451L115.993 37.4215C112.294 36.9981 108.725 36.687 105.303 36.4536C104.88 28.0629 102.486 22.567 99.9631 19.05C98.3991 19.4475 96.8955 19.8882 95.4351 20.3634C92.7303 21.2449 90.2071 22.23 87.8912 23.2842C90.4577 26.0927 92.2119 30.5862 92.8772 35.9784C88.5652 35.9352 84.642 36.0129 81.1941 36.1598L80.6843 36.1858C71.9392 36.5919 65.0521 37.4647 60.7833 38.1301C62.8053 35.6414 65.9335 32.2453 70.3319 28.7196V28.711ZM172.836 65.1948C172.654 65.0738 172.455 64.9874 172.222 64.9614C171.47 64.875 170.788 65.4194 170.71 66.1712C170.632 66.923 171.168 67.6057 171.92 67.6835C171.946 67.6835 171.972 67.6835 171.997 67.6835C171.747 68.3748 171.496 69.0661 171.228 69.7228C169.526 70.3623 167.806 70.9326 166.069 71.477C165.871 71.0709 165.473 70.7771 164.998 70.7252C164.246 70.6388 163.563 71.1832 163.486 71.935C163.477 72.0387 163.486 72.1424 163.486 72.2461C157.687 73.8793 151.751 75.0113 145.754 75.6249C145.538 75.3052 145.192 75.0718 144.777 75.0286C144.172 74.9595 143.611 75.3051 143.377 75.8323C142.064 75.936 140.75 76.0224 139.428 76.0829C139.454 75.9965 139.48 75.9014 139.489 75.8064C139.575 75.0546 139.031 74.3719 138.279 74.2941C137.527 74.2077 136.844 74.7521 136.767 75.5039C136.741 75.7372 136.784 75.9533 136.862 76.1606C135.315 76.1952 133.759 76.1952 132.213 76.1606C132.627 75.9619 132.939 75.5644 132.999 75.0718C133.085 74.32 132.541 73.6374 131.789 73.5596C131.037 73.4732 130.355 74.0176 130.277 74.7694C130.217 75.3311 130.502 75.8582 130.968 76.1174C127.054 75.9878 123.148 75.6594 119.277 75.1237C118.032 74.9509 116.796 74.7607 115.561 74.5447C114.593 74.3805 113.625 74.1818 112.666 73.9917C113.115 73.8102 113.461 73.3954 113.521 72.8769C113.608 72.1251 113.063 71.4425 112.312 71.3647C111.56 71.2783 110.877 71.8227 110.799 72.5745C110.748 73.0152 110.92 73.43 111.214 73.7151C109.754 73.4041 108.293 73.0584 106.842 72.6868C106.937 72.5226 106.997 72.3412 107.023 72.1511C107.11 71.3993 106.565 70.7166 105.813 70.6388C105.062 70.5524 104.379 71.0968 104.301 71.8486C104.301 71.9005 104.301 71.9523 104.301 72.0042C103.022 71.6499 101.743 71.261 100.473 70.8635C100.317 70.3623 99.8767 69.9734 99.3237 69.9129C99.22 69.9043 99.1163 69.9129 99.0126 69.9129C99.5484 68.66 100.075 67.3465 100.577 65.9639C100.948 65.7565 101.216 65.3849 101.268 64.9269C101.294 64.6936 101.259 64.4689 101.173 64.2701C103.299 58.0052 104.932 50.6082 105.312 42.2693C108.509 42.4853 111.836 42.7791 115.284 43.1766L114.904 46.1147L119.13 46.6591L119.51 43.7037C121.705 43.9975 123.934 44.3432 126.207 44.7234L125.766 47.4195L129.975 48.1108L130.407 45.4666C132.584 45.8727 134.788 46.3221 137.017 46.8233L136.464 49.4848L140.638 50.3489L141.174 47.7825C143.42 48.3355 145.572 48.8799 147.62 49.4157L146.963 52.034L151.103 53.0623L151.733 50.5304C153.92 51.1439 155.985 51.7402 157.929 52.3278L157.134 55.3782L161.265 56.4497L161.999 53.6067C167.15 55.2745 171.332 56.8386 174.694 58.2298C174.607 58.636 174.529 59.0335 174.434 59.4396C173.968 61.4531 173.441 63.3714 172.862 65.1948H172.836ZM80.9522 41.9755L81.4534 41.9495C84.9013 41.8026 88.8417 41.7162 93.171 41.7767C93.1278 44.2913 92.8686 46.9097 92.376 49.5885C91.4601 54.5918 89.9133 59.0594 88.185 62.9135C88.0381 62.395 87.5887 61.9975 87.0184 61.937C86.2666 61.8506 85.5839 62.395 85.5062 63.1468C85.4197 63.8986 85.9641 64.5812 86.716 64.659C86.9665 64.6849 87.2085 64.6417 87.4245 64.5467C87.2604 64.8923 87.0875 65.2466 86.9233 65.5836C85.1259 64.7195 83.4063 63.7603 81.7299 62.7493C81.7299 62.7493 81.7299 62.732 81.7299 62.7233C81.8163 61.9715 81.2719 61.2889 80.5201 61.2111C80.1917 61.1765 79.872 61.263 79.6128 61.4358C76.0352 59.1285 72.6565 56.5621 69.2863 53.9351C69.1135 53.6326 68.8284 53.3993 68.4741 53.2956C67.1433 52.25 65.8039 51.1958 64.4558 50.1502C65.0521 51.36 65.8212 52.7339 66.7717 54.2894C66.7717 54.3067 66.7544 54.3326 66.7544 54.3499C67.0742 54.8597 67.4112 55.3868 67.7741 55.9399C67.7914 55.9399 67.8173 55.9399 67.8346 55.9572C69.174 57.9965 70.8245 60.2951 72.8811 62.8875C73.9959 64.2961 75.7846 66.3527 78.3079 68.7204C78.3943 68.8069 78.4894 68.8846 78.5758 68.971C84.2272 74.1991 93.4562 80.8529 107.049 85.355L107.161 85.3896C116.555 88.4832 126.492 89.9609 136.706 89.7881C137.372 89.7794 138.028 89.7535 138.685 89.7276C155.916 88.9326 167.046 81.7775 173.345 75.9187C175.774 73.6546 177.701 71.4165 179.204 69.4031C179.222 69.3599 179.239 69.3253 179.256 69.2821C179.55 68.8933 179.826 68.513 180.086 68.1415C180.734 66.0675 181.33 63.8554 181.823 61.5222C184.087 62.6801 185.72 63.6739 186.852 64.4343C185.608 67.0872 182.203 73.093 175.851 78.995C168.696 85.6488 156.071 93.668 136.386 94.005C125.732 94.1951 115.353 92.657 105.537 89.4251L105.321 89.356C84.21 82.3651 72.9935 70.3364 69.1481 65.4886C60.1438 54.1425 58.0526 47.5751 57.6292 44.5765C59.608 44.179 68.1975 42.5717 80.9349 41.9841L80.9522 41.9755ZM145.062 124.708C143.343 124.708 142.487 124.708 140.768 124.708C140.569 115.271 140.465 110.553 140.266 101.117H149.15C151.232 101.117 152.71 102.569 152.805 104.66C152.926 107.589 152.995 109.05 153.116 111.97C153.185 113.69 152.295 114.969 150.757 115.375C152.036 119.108 152.684 120.975 153.998 124.708H149.495C148.389 121.027 147.845 119.186 146.765 115.505H144.803C144.907 119.186 144.959 121.027 145.062 124.708ZM146.428 169.988C143.204 169.85 141.597 169.798 138.374 169.712C138.072 158.824 137.769 147.936 137.467 137.048C140.422 137.048 141.9 137.048 144.855 137.048C145.373 148.022 145.901 159.005 146.428 169.98V169.988ZM156.443 137.056C159.321 146.138 160.824 150.727 163.961 160.068C164.082 160.561 164.142 160.803 164.263 161.295C164.298 160.811 164.307 160.569 164.341 160.085C165.784 151.012 166.432 146.415 167.625 137.056C170.727 137.056 172.274 137.056 175.368 137.056C173.864 148.636 172.084 160.163 169.984 171.63C166.104 171.25 164.16 171.086 160.271 170.801C156.262 159.619 152.382 148.368 148.7 137.056C151.803 137.056 153.349 137.056 156.443 137.056ZM158.249 104.591C158.145 102.499 159.485 101.048 161.533 101.048H166.951C169.033 101.048 170.554 102.499 170.71 104.591C171.194 111.236 171.436 114.563 171.92 121.208C172.075 123.334 170.701 124.777 168.532 124.777H162.898C160.764 124.777 159.217 123.325 159.105 121.208C158.759 114.563 158.586 111.236 158.249 104.591ZM101.501 170.343C98.1225 170.541 96.4375 170.654 93.0673 170.922C91.6847 165.78 91.0193 163.188 89.7491 157.942C88.306 158.02 87.5801 158.063 86.137 158.15C85.5926 163.542 85.316 166.247 84.7716 171.639C81.5571 171.95 79.9498 172.123 76.7438 172.494C78.1264 160.682 79.5004 148.869 80.883 137.056C87.2431 137.056 90.4231 137.056 96.7918 137.056C100.516 137.056 102.927 139.104 102.728 142.051C102.46 146.182 102.322 148.247 102.046 152.377C101.882 154.806 100.032 156.672 97.1201 157.372C98.8052 162.6 99.678 165.192 101.51 170.334L101.501 170.343ZM55.5984 169.297C58.5538 168.882 60.0315 168.684 62.9868 168.303C63.1164 168.286 63.2547 168.165 63.272 168.061C64.7237 157.735 66.1755 147.4 67.6272 137.074C70.5826 137.074 72.0602 137.074 75.0156 137.074C73.7021 147.357 72.3886 157.631 71.0665 167.915C70.6517 171.172 67.6099 173.747 63.5744 174.344C59.3747 174.957 57.2749 175.294 53.0838 176.011C49.0569 176.703 46.7756 174.758 47.3546 171.155C49.1866 159.8 51.0099 148.446 52.8419 137.091C55.7972 137.091 57.2749 137.091 60.2302 137.091C58.6056 147.772 56.9897 158.452 55.3738 169.133C55.3565 169.245 55.3997 169.34 55.5898 169.314L55.5984 169.297ZM74.523 124.777C72.2676 124.777 71.1442 124.777 68.8888 124.777C66.7544 124.777 65.4323 123.325 65.6483 121.208C66.3396 114.563 66.6853 111.236 67.368 104.591C67.584 102.499 69.1567 101.048 71.2047 101.048H76.6228C78.7054 101.048 80.0016 102.499 79.8288 104.591C79.7078 106.06 79.6473 106.794 79.5263 108.263H75.3439C75.4563 107.01 75.5081 106.379 75.6205 105.126C75.6291 105.023 75.5686 104.997 75.4995 104.997H71.6109C71.5072 104.997 71.4726 105.031 71.464 105.126C70.8591 111.357 70.5653 114.468 69.9604 120.698C69.9604 120.767 69.9777 120.836 70.0814 120.836C71.68 120.836 72.475 120.836 74.0737 120.836C74.1428 120.836 74.2206 120.767 74.2206 120.698C74.402 118.659 74.4971 117.648 74.6786 115.608H72.3454C72.4923 114.062 72.5614 113.284 72.7083 111.728H79.2325C78.9215 115.513 78.7659 117.406 78.4548 121.199C78.282 123.325 76.6833 124.768 74.5144 124.768L74.523 124.777ZM97.0424 124.708H92.5402C91.7798 121.027 91.4082 119.186 90.6737 115.505H88.7121C88.4701 119.186 88.3492 121.027 88.1072 124.708H83.8125C84.5038 115.271 84.8494 110.553 85.5321 101.117H94.4154C96.498 101.117 97.846 102.569 97.7337 104.66C97.5781 107.589 97.509 109.05 97.3535 111.97C97.267 113.69 96.2474 114.969 94.6746 115.375C95.5993 119.108 96.0745 120.975 97.0424 124.708ZM102.34 124.708C102.737 115.271 102.936 110.553 103.342 101.117H107.472C107.135 110.553 106.971 115.271 106.643 124.708H102.34ZM114.645 137.048C116.511 145.879 117.505 150.26 119.639 159.023C119.709 159.489 119.735 159.723 119.804 160.18C119.89 159.714 119.933 159.481 120.011 159.014C122.465 150.2 123.623 145.81 125.818 137.039C128.92 137.039 130.467 137.039 133.561 137.039C130.77 147.962 127.719 158.807 124.444 169.574C120.547 169.6 118.603 169.634 114.714 169.746C111.836 158.919 109.227 148.013 106.902 137.039C110.004 137.039 111.551 137.039 114.645 137.039V137.048ZM112.277 124.708C112.528 115.271 112.64 110.553 112.891 101.117H121.774C123.856 101.117 125.265 102.569 125.256 104.66C125.222 111.253 125.213 114.546 125.179 121.139C125.17 123.265 123.684 124.708 121.515 124.708C117.816 124.708 115.967 124.708 112.268 124.708H112.277ZM130.839 124.708C130.795 115.271 130.77 110.553 130.726 101.117H134.857C134.969 110.553 135.021 115.271 135.133 124.708H130.839ZM30.6422 92.6051L30.7459 90.2547L32.7853 89.0881C42.7315 83.3935 52.7295 78.5716 62.6671 74.6311C64.499 76.6446 66.8063 78.8568 69.4592 81.1294C59.3834 84.8884 49.2125 89.6412 39.0762 95.3185C39.033 96.6666 38.9984 98.1183 38.9811 99.6651V104.53C39.0071 109.577 39.2144 115.384 39.707 121.692L50.405 126.03H31.515C30.2274 112.074 30.3139 100.244 30.6422 92.6051ZM22.9428 182.233C18.9505 183.201 16.8247 181.041 17.5938 176.832C18.1209 173.92 18.3888 172.469 18.9159 169.565C22.0095 168.995 23.565 168.718 26.6672 168.191C26.2351 170.593 26.0191 171.794 25.5957 174.197C25.5698 174.326 25.613 174.439 25.8031 174.404C28.7325 173.808 30.2015 173.523 33.1396 172.978C33.2692 172.952 33.4075 172.806 33.4334 172.685C33.8136 170.481 34.0124 169.375 34.3926 167.171C34.4358 166.929 34.3321 166.826 34.237 166.662C30.0719 162.531 28.0412 160.345 24.0834 155.609C22.6576 153.959 22.1651 151.764 22.6835 148.895C23.0465 146.925 23.2193 145.931 23.5822 143.961C24.334 139.83 27.3412 136.953 31.0657 136.953C34.9456 136.953 36.8813 136.953 40.7612 136.953C44.4857 136.953 46.6028 139.484 45.9893 143.14C45.5572 145.706 45.3412 146.994 44.9177 149.56C41.8933 149.759 40.381 149.863 37.3566 150.07C37.7541 147.789 37.9528 146.648 38.3503 144.367C38.3849 144.185 38.2725 144.125 38.1516 144.134C35.3518 144.246 33.9519 144.298 31.1521 144.419C30.9706 144.419 30.9015 144.488 30.8669 144.687C30.5558 146.449 30.3916 147.331 30.0805 149.094C30.0373 149.353 30.0719 149.474 30.2188 149.655C34.1765 154.417 36.2073 156.62 40.381 160.785C41.8241 162.246 42.4809 164.112 42.0574 166.644C41.6859 168.856 41.5044 169.963 41.1328 172.183C40.5106 175.89 37.3479 178.967 33.347 179.848C29.1818 180.756 27.0993 181.239 22.9428 182.251V182.233ZM188.788 221.638C181.114 230.72 172.179 238.523 162.224 244.823C152.399 251.044 141.286 255.987 129.197 259.504L128.004 259.85L126.812 259.504C114.723 255.987 103.61 251.044 93.7846 244.823C83.8297 238.523 74.8946 230.72 67.2211 221.638C66.9618 221.327 66.7112 221.007 66.452 220.696C69.6666 220.117 72.9589 219.573 76.3204 219.054C82.836 226.226 90.2243 232.474 98.3472 237.616C107.179 243.207 117.151 247.691 128.013 250.958C138.867 247.691 148.847 243.207 157.679 237.616C165.81 232.465 173.207 226.218 179.723 219.037C183.093 219.547 186.403 220.091 189.609 220.653C189.341 220.981 189.073 221.318 188.805 221.638H188.788ZM128.004 233.978C128.004 233.978 143.688 230.461 153.531 221.819C153.531 221.819 144.682 233.813 128.004 238.843C111.318 233.805 102.478 221.819 102.478 221.819C112.32 230.461 128.004 233.978 128.004 233.978ZM114.213 219.642C123.468 217.473 132.653 217.473 141.796 219.642C141.796 219.642 137.709 223.055 128.004 225.5C118.3 223.046 114.213 219.642 114.213 219.642ZM219.024 215.165L206.727 219.693L208.611 212.374C155.328 199.015 99.4619 199.11 46.2139 212.668L48.02 219.685L36.9763 215.157C35.153 208.995 33.3383 202.834 31.515 196.664C94.5364 178.656 161.464 178.656 224.485 196.664C222.662 202.826 220.847 208.987 219.024 215.157V215.165ZM230.283 181.706C227.242 174.309 225.747 170.706 222.791 163.654C221.357 163.447 220.64 163.352 219.205 163.153C220.363 169.824 220.942 173.16 222.091 179.831C218.92 179.131 217.33 178.803 214.141 178.163C211.86 164.458 209.57 150.761 207.289 137.056C213.649 137.056 216.829 137.056 223.197 137.065C226.922 137.065 229.981 139.925 230.733 144.047C231.778 149.82 232.305 152.697 233.36 158.47C233.973 161.857 232.72 164.13 230.024 164.467C233.386 171.959 235.097 175.813 238.562 183.754C235.252 182.899 233.593 182.484 230.283 181.689V181.706Z" fill="#27272A"/>
<path d="M148.899 111.486C148.813 108.937 148.761 107.667 148.674 105.118C148.674 105.014 148.605 104.988 148.536 104.988H144.509C144.587 107.641 144.622 108.972 144.699 111.625H148.769C148.839 111.625 148.899 111.59 148.899 111.486Z" fill="#27272A"/>
<path d="M194.767 143.373C191.959 143.287 190.559 143.252 187.759 143.174C187.578 143.174 187.526 143.218 187.552 143.382C188.926 153.216 189.609 158.132 190.982 167.958C191 168.061 191.078 168.182 191.268 168.2C194.223 168.571 195.709 168.77 198.656 169.185C198.786 169.202 198.889 169.107 198.872 169.003C197.343 158.841 196.573 153.76 195.035 143.598C195.009 143.434 194.88 143.373 194.767 143.373Z" fill="#27272A"/>
<path d="M93.4389 104.988H89.4121C89.2392 107.641 89.1528 108.972 88.9713 111.625H93.0414C93.1105 111.625 93.1797 111.59 93.1883 111.486C93.3352 108.937 93.413 107.667 93.5599 105.118C93.5599 105.014 93.4994 104.988 93.4303 104.988H93.4389Z" fill="#27272A"/>
<path d="M223.431 144.652C223.396 144.462 223.267 144.393 223.146 144.384C220.251 144.263 218.799 144.203 215.904 144.09C216.742 148.904 217.157 151.314 217.987 156.128C220.942 156.43 222.42 156.586 225.375 156.914C225.496 156.931 225.608 156.88 225.574 156.689C224.718 151.876 224.286 149.465 223.431 144.652Z" fill="#27272A"/>
<path d="M120.97 104.988H116.943C116.822 111.322 116.762 114.494 116.641 120.828H120.772C120.841 120.828 120.91 120.759 120.91 120.69C120.979 114.459 121.022 111.348 121.091 105.118C121.091 105.014 121.022 104.988 120.962 104.988H120.97Z" fill="#27272A"/>
<path d="M50.3531 199.36C50.1112 198.332 49.5063 197.96 48.4953 198.202L44.2264 199.196L46.0065 206.861L47.8212 206.438L47.2423 203.966L49.6964 203.396C50.7161 203.163 51.0963 202.566 50.8543 201.538L50.3531 199.369V199.36ZM48.815 201.944L46.8793 202.393L46.4041 200.337L48.3397 199.887C48.4953 199.853 48.5557 199.887 48.599 200.043L48.9792 201.685C49.0137 201.849 48.9792 201.91 48.8236 201.944H48.815Z" fill="#27272A"/>
<path d="M60.5327 199.257L60.1438 197.33C59.9364 196.293 59.3401 195.912 58.3205 196.12L54.0257 196.984L55.5812 204.692L57.4131 204.321L56.8774 201.668L57.9489 201.452L59.7722 203.845L61.6733 203.456L59.7809 200.942C60.4722 200.665 60.7141 200.121 60.5413 199.248L60.5327 199.257ZM58.5106 199.758L56.5576 200.155L56.1601 198.177L58.1044 197.779C58.26 197.744 58.3205 197.779 58.355 197.943L58.6748 199.507C58.7093 199.671 58.6661 199.723 58.5106 199.758Z" fill="#27272A"/>
<path d="M67.0655 200.838L66.7976 199.257L69.5974 198.764L69.3209 197.2L66.5211 197.684L66.2792 196.275L69.7703 195.671L69.4937 194.081L64.162 195.005L65.5101 202.748L70.8418 201.823L70.5653 200.233L67.0655 200.838Z" fill="#27272A"/>
<path d="M79.8979 194.081C79.751 193.035 79.1721 192.62 78.1437 192.767L73.7021 193.406L74.8254 201.184L79.2757 200.536C80.3127 200.389 80.7361 199.81 80.5892 198.781L79.9066 194.072L79.8979 194.081ZM78.5153 199.023L76.4327 199.326L75.7674 194.746L77.8499 194.443C78.0055 194.418 78.066 194.461 78.0919 194.625L78.6968 198.781C78.7227 198.937 78.6709 198.997 78.5153 199.023Z" fill="#27272A"/>
<path d="M85.8429 191.768L83.9898 191.991L84.9304 199.799L86.7836 199.575L85.8429 191.768Z" fill="#27272A"/>
<path d="M96.5671 195.601L94.7092 195.783L94.8129 196.88C94.8302 197.036 94.7783 197.096 94.6228 197.114L92.8772 197.286C92.7217 197.304 92.6612 197.252 92.6439 197.096L92.2378 192.914C92.2205 192.75 92.2723 192.698 92.4279 192.681L94.1734 192.508C94.329 192.491 94.3895 192.534 94.4068 192.698L94.5105 193.778L96.3683 193.597L96.2387 192.231C96.135 191.177 95.5993 190.736 94.5536 190.84L91.7539 191.117C90.7169 191.22 90.2503 191.765 90.354 192.81L90.8206 197.554C90.9243 198.591 91.4773 199.049 92.5143 198.946L95.3055 198.669C96.3424 198.565 96.8004 198.012 96.6967 196.975L96.5584 195.601H96.5671Z" fill="#27272A"/>
<path d="M105.597 189.967L99.6521 190.391L99.7644 192.015L101.804 191.868L102.244 198.09L104.102 197.96L103.662 191.739L105.718 191.592L105.597 189.967Z" fill="#27272A"/>
<path d="M116.434 189.457L114.282 197.39L116.218 197.33L116.615 195.653L119.121 195.584L119.622 197.235L121.636 197.174L119.009 189.38L116.434 189.457ZM116.995 194.063L117.738 190.961L118.646 194.011L116.995 194.063Z" fill="#27272A"/>
<path d="M125.265 189.267L125.256 197.131L127.062 197.14L127.071 192.257L130.009 197.14H131.737L131.746 189.276H129.94L129.931 193.89L127.166 189.276L125.265 189.267Z" fill="#27272A"/>
<path d="M142.133 195.843L142.28 191.082C142.314 190.028 141.822 189.518 140.776 189.483L136.283 189.345L136.041 197.209L140.534 197.347C141.58 197.382 142.098 196.889 142.133 195.843ZM140.275 195.506C140.275 195.662 140.215 195.722 140.059 195.714L137.959 195.653L138.097 191.021L140.197 191.082C140.353 191.082 140.413 191.134 140.405 191.298L140.275 195.498V195.506Z" fill="#27272A"/>
<path d="M153.816 195.524L156.331 195.714C157.376 195.792 157.912 195.334 157.99 194.288L158.154 192.067C158.232 191.013 157.765 190.486 156.72 190.408L152.347 190.08L151.759 197.926L153.617 198.064L153.807 195.532L153.816 195.524ZM154.093 191.816L156.08 191.963C156.236 191.972 156.287 192.024 156.279 192.197L156.149 193.882C156.141 194.046 156.08 194.089 155.925 194.081L153.937 193.934L154.093 191.825V191.816Z" fill="#27272A"/>
<path d="M163.693 196.215L164.773 196.327L165.802 199.153L167.737 199.352L166.683 196.388C167.426 196.327 167.815 195.887 167.91 195.005L168.117 193.052C168.23 192.007 167.772 191.462 166.735 191.35L162.38 190.9L161.567 198.721L163.425 198.911L163.702 196.215H163.693ZM164.065 192.663L166.044 192.871C166.199 192.888 166.251 192.94 166.234 193.104L166.069 194.694C166.052 194.858 165.992 194.901 165.836 194.884L163.857 194.677L164.065 192.663Z" fill="#27272A"/>
<path d="M177.174 198.92L173.657 198.462L173.864 196.872L176.681 197.235L176.888 195.653L174.071 195.282L174.253 193.873L177.778 194.331L177.986 192.732L172.62 192.024L171.591 199.818L176.966 200.527L177.174 198.92Z" fill="#27272A"/>
<path d="M184.795 201.728L188.416 194.348L186.472 194.037L184.078 199.602L183.542 193.571L181.546 193.251L182.678 201.391L184.795 201.728Z" fill="#27272A"/>
<path d="M191.795 201.261L194.258 201.719L194.396 203.439L196.375 203.811L195.476 195.645L192.953 195.169L189.168 202.454L191.069 202.808L191.821 201.261H191.795ZM193.886 196.915L194.128 200.086L192.503 199.784L193.886 196.915Z" fill="#27272A"/>
<path d="M201.541 196.832L199.919 204.526L201.746 204.911L203.367 197.217L201.541 196.832Z" fill="#27272A"/>
<path d="M211.367 205.427L208.187 204.683L209.605 198.626L207.79 198.194L206.001 205.859L210.996 207.025L211.367 205.427Z" fill="#27272A"/>
<path d="M140.474 54.7992C139.722 54.7128 139.039 55.2572 138.962 56.009C138.884 56.7608 139.42 57.4435 140.171 57.5213C140.923 57.6077 141.606 57.0633 141.684 56.3115C141.77 55.5597 141.226 54.877 140.474 54.7992Z" fill="#27272A"/>
<path d="M139.005 67.7958C138.253 67.7094 137.57 68.2538 137.493 69.0056C137.406 69.7574 137.951 70.4401 138.702 70.5178C139.454 70.5956 140.137 70.0599 140.215 69.3081C140.301 68.5563 139.757 67.8736 139.005 67.7958Z" fill="#27272A"/>
<path d="M139.739 61.2975C138.987 61.2111 138.305 61.7555 138.227 62.5073C138.149 63.2591 138.685 63.9418 139.437 64.0195C140.189 64.0973 140.871 63.5616 140.949 62.8098C141.035 62.058 140.491 61.3753 139.739 61.2975Z" fill="#27272A"/>
<path d="M132.506 67.0613C131.755 66.9749 131.072 67.5193 130.994 68.2711C130.916 69.0229 131.452 69.7056 132.204 69.7833C132.956 69.8697 133.638 69.3253 133.716 68.5735C133.803 67.8217 133.258 67.1391 132.506 67.0613Z" fill="#27272A"/>
<path d="M146.238 62.032C145.486 61.9456 144.803 62.49 144.725 63.2418C144.639 63.9936 145.183 64.6763 145.935 64.7541C146.687 64.8405 147.37 64.2961 147.447 63.5443C147.534 62.7925 146.989 62.1098 146.238 62.032Z" fill="#27272A"/>
<path d="M127.477 53.3302C126.725 53.2438 126.043 53.7882 125.965 54.54C125.879 55.2918 126.423 55.9745 127.175 56.0522C127.927 56.1386 128.609 55.5942 128.687 54.8424C128.765 54.0906 128.229 53.408 127.477 53.3302Z" fill="#27272A"/>
<path d="M126.743 59.8285C125.991 59.7421 125.308 60.2865 125.23 61.0383C125.144 61.7901 125.688 62.4727 126.44 62.5505C127.192 62.6369 127.875 62.0925 127.952 61.3407C128.039 60.5889 127.494 59.9063 126.743 59.8285Z" fill="#27272A"/>
<path d="M126.017 66.3268C125.265 66.2404 124.582 66.7848 124.505 67.5366C124.418 68.2884 124.963 68.971 125.714 69.0488C126.466 69.1352 127.149 68.5908 127.227 67.839C127.313 67.0872 126.769 66.4046 126.017 66.3268Z" fill="#27272A"/>
<path d="M118.784 72.0906C118.032 72.0042 117.35 72.5486 117.272 73.3004C117.185 74.0522 117.73 74.7348 118.482 74.8126C119.233 74.899 119.916 74.3546 119.994 73.6028C120.072 72.851 119.536 72.1683 118.784 72.0906Z" fill="#27272A"/>
<path d="M133.975 54.0647C133.224 53.9783 132.541 54.5227 132.463 55.2745C132.377 56.0263 132.921 56.709 133.673 56.7867C134.425 56.8731 135.108 56.3287 135.185 55.577C135.272 54.8252 134.727 54.1425 133.975 54.0647Z" fill="#27272A"/>
<path d="M133.241 60.563C132.489 60.4766 131.807 61.021 131.729 61.7728C131.642 62.5246 132.187 63.2073 132.939 63.285C133.69 63.3714 134.373 62.827 134.451 62.0752C134.537 61.3234 133.993 60.6408 133.241 60.563Z" fill="#27272A"/>
<path d="M145.503 68.5217C144.751 68.4353 144.069 68.9797 143.991 69.7315C143.904 70.4833 144.449 71.1659 145.201 71.2437C145.952 71.3215 146.635 70.7857 146.713 70.0339C146.791 69.2821 146.255 68.5995 145.503 68.5217Z" fill="#27272A"/>
<path d="M125.282 72.8251C124.53 72.7387 123.848 73.2831 123.77 74.0349C123.692 74.7867 124.228 75.4693 124.98 75.5471C125.732 75.6335 126.414 75.0891 126.492 74.3373C126.579 73.5855 126.034 72.9029 125.282 72.8251Z" fill="#27272A"/>
<path d="M165.732 64.2269C164.981 64.1405 164.298 64.6849 164.22 65.4367C164.134 66.1885 164.678 66.8712 165.43 66.949C166.182 67.0354 166.864 66.491 166.942 65.7392C167.029 64.9874 166.484 64.3047 165.732 64.2269Z" fill="#27272A"/>
<path d="M158.5 69.9907C157.748 69.9043 157.065 70.4487 156.987 71.2005C156.901 71.9523 157.445 72.635 158.197 72.7127C158.949 72.7992 159.632 72.2548 159.709 71.503C159.787 70.7512 159.251 70.0685 158.5 69.9907Z" fill="#27272A"/>
<path d="M148.139 56.5448C148 56.009 147.551 55.5942 146.972 55.5251C146.471 55.4646 145.996 55.6979 145.719 56.0782C145.71 56.0868 145.702 56.1041 145.693 56.1214C145.641 56.1991 145.598 56.2769 145.564 56.3633C145.564 56.3806 145.546 56.3979 145.538 56.4152C145.503 56.5189 145.468 56.6226 145.46 56.7349C145.451 56.8299 145.451 56.925 145.46 57.0114C145.52 57.6509 146.013 58.178 146.67 58.2558C147.421 58.3422 148.104 57.7978 148.182 57.046C148.182 56.9509 148.191 56.8645 148.182 56.7867C148.182 56.7176 148.165 56.6485 148.147 56.5793C148.147 56.5707 148.147 56.5621 148.147 56.5534L148.139 56.5448Z" fill="#27272A"/>
<path d="M152.001 69.2562C151.25 69.1698 150.567 69.7142 150.489 70.466C150.403 71.2178 150.947 71.9005 151.699 71.9782C152.451 72.0646 153.133 71.5202 153.211 70.7684C153.298 70.0166 152.753 69.334 152.001 69.2562Z" fill="#27272A"/>
<path d="M152.736 62.7579C151.984 62.6715 151.301 63.2159 151.224 63.9677C151.137 64.7195 151.682 65.4022 152.433 65.4799C153.185 65.5664 153.868 65.0219 153.946 64.2701C154.023 63.5183 153.488 62.8357 152.736 62.7579Z" fill="#27272A"/>
<path d="M159.234 63.4924C158.482 63.406 157.8 63.9504 157.722 64.7022C157.644 65.454 158.18 66.1367 158.932 66.2144C159.684 66.3009 160.366 65.7565 160.444 65.0047C160.522 64.2529 159.986 63.5702 159.234 63.4924Z" fill="#27272A"/>
<path d="M80.9608 57.4262C81.7126 57.5126 82.3953 56.9682 82.473 56.2164C82.5595 55.4646 82.0151 54.7819 81.2633 54.7042C80.5115 54.6178 79.8288 55.1622 79.751 55.914C79.6646 56.6658 80.209 57.3484 80.9608 57.4262Z" fill="#27272A"/>
<path d="M81.6867 50.9279C82.4385 51.0143 83.1125 50.4699 83.1989 49.7181C83.2076 49.6144 83.2076 49.5194 83.1989 49.4243C83.1989 49.407 83.1989 49.3897 83.1903 49.3725C83.1816 49.2947 83.1644 49.2169 83.1384 49.1391V49.1132C83.0952 49.0268 83.0607 48.949 83.0174 48.8713C82.8014 48.5083 82.4385 48.2491 81.9978 48.2059C81.3842 48.1367 80.8312 48.4824 80.5979 49.0182C80.5979 49.0354 80.5806 49.0527 80.5719 49.07C80.5287 49.1824 80.4942 49.2947 80.4855 49.4157C80.3991 50.1675 80.9435 50.8501 81.6953 50.9279H81.6867Z" fill="#27272A"/>
<path d="M74.4625 56.6917C75.2143 56.7781 75.897 56.2337 75.9747 55.4819C76.0612 54.7301 75.5168 54.0474 74.765 53.9697C74.0132 53.8832 73.3305 54.4277 73.2527 55.1795C73.1749 55.9312 73.7107 56.6139 74.4625 56.6917Z" fill="#27272A"/>
<path d="M87.4505 58.1607C88.2023 58.2471 88.8849 57.7027 88.9627 56.9509C89.0491 56.1991 88.5047 55.5165 87.7529 55.4387C87.0011 55.3609 86.3185 55.8967 86.2407 56.6485C86.1543 57.4003 86.6987 58.0829 87.4505 58.1607Z" fill="#27272A"/>
<path d="M88.185 51.6624C88.9368 51.7488 89.6194 51.2044 89.6972 50.4526C89.7836 49.7008 89.2392 49.0182 88.4874 48.9404C87.7356 48.8626 87.053 49.3984 86.9752 50.1502C86.8888 50.902 87.4332 51.5846 88.185 51.6624Z" fill="#27272A"/>
<path d="M106.522 64.1319C105.77 64.0455 105.087 64.5899 105.01 65.3417C104.923 66.0935 105.468 66.7761 106.219 66.8539C106.971 66.9403 107.654 66.3959 107.732 65.6441C107.818 64.8923 107.274 64.2097 106.522 64.1319Z" fill="#27272A"/>
<path d="M113.02 64.8578C112.268 64.7713 111.586 65.3158 111.508 66.0676C111.422 66.8193 111.966 67.502 112.718 67.5798C113.47 67.6576 114.152 67.1218 114.23 66.37C114.316 65.6182 113.772 64.9355 113.02 64.8578Z" fill="#27272A"/>
<path d="M107.256 57.6336C106.505 57.5472 105.822 58.0916 105.744 58.8434C105.658 59.5952 106.202 60.2778 106.954 60.3556C107.706 60.4334 108.388 59.8976 108.466 59.1458C108.553 58.394 108.008 57.7114 107.256 57.6336Z" fill="#27272A"/>
<path d="M113.755 58.3681C113.003 58.2817 112.32 58.8261 112.243 59.5779C112.156 60.3297 112.7 61.0124 113.452 61.0901C114.204 61.1679 114.887 60.6321 114.965 59.8803C115.051 59.1285 114.507 58.4459 113.755 58.3681Z" fill="#27272A"/>
<path d="M107.982 51.1353C107.231 51.0489 106.548 51.5933 106.47 52.3451C106.384 53.0969 106.928 53.7796 107.68 53.8573C108.432 53.9437 109.114 53.3993 109.192 52.6475C109.279 51.8957 108.734 51.2131 107.982 51.1353Z" fill="#27272A"/>
<path d="M114.481 51.8698C113.729 51.7834 113.046 52.3278 112.968 53.0796C112.891 53.8314 113.426 54.5141 114.178 54.5918C114.93 54.6696 115.613 54.1338 115.69 53.382C115.777 52.6302 115.232 51.9476 114.481 51.8698Z" fill="#27272A"/>
<path d="M120.244 59.094C119.493 59.0076 118.81 59.552 118.732 60.3038C118.646 61.0556 119.19 61.7382 119.942 61.816C120.694 61.9024 121.376 61.358 121.454 60.6062C121.541 59.8544 120.996 59.1718 120.244 59.094Z" fill="#27272A"/>
<path d="M120.979 52.5957C120.227 52.5093 119.544 53.0537 119.467 53.8055C119.38 54.5573 119.925 55.2399 120.676 55.3177C121.428 55.4041 122.111 54.8597 122.189 54.1079C122.275 53.3561 121.731 52.6735 120.979 52.5957Z" fill="#27272A"/>
<path d="M119.519 65.5923C118.767 65.5059 118.084 66.0503 118.006 66.8021C117.92 67.5539 118.464 68.2365 119.216 68.3143C119.968 68.4007 120.651 67.8563 120.728 67.1045C120.815 66.3527 120.27 65.67 119.519 65.5923Z" fill="#27272A"/>
</svg>
