<svg width="80" height="36" viewBox="0 0 80 36" fill="none" xmlns="http://www.w3.org/2000/svg">
<g clip-path="url(#clip0_173_32535)">
<path d="M63.4085 11.7928L60.9399 1.4248H19.0972L16.634 11.7928H6.10589L1.25684 32.9983L5.3373 34.5355C17.109 30.7726 28.7499 28.9125 40.2574 28.9125C51.7649 28.9125 62.8694 30.7273 73.9899 34.3114C74.2194 34.3994 74.4463 34.4821 74.6758 34.5729L78.7429 33.2492C77.099 26.3639 75.4524 18.678 73.8085 11.7928H63.4085Z" fill="#23113F"/>
<path d="M60.9321 1.39268L63.4006 11.7606H73.8006C75.4445 18.6459 77.0911 26.3318 78.735 33.2171L74.6679 34.5408C74.4411 34.4527 74.2116 34.3673 73.9821 34.2792C62.8615 30.6951 51.6209 28.8804 40.2495 28.8804C28.8781 28.8804 17.1011 30.7405 5.32942 34.5034L1.24896 32.9662L6.09801 11.7606H16.6234L19.0866 1.39268H60.9321ZM61.7754 0.325195H18.2433L18.0485 1.14716L15.7801 10.6958H5.24669L5.05721 11.5258L0.20816 32.7287L0 33.6361L0.872669 33.9643L4.95313 35.5015L5.30006 35.6323L5.655 35.5202C17.2185 31.824 28.8595 29.9479 40.2495 29.9479C51.6396 29.9479 62.6293 31.7439 73.6298 35.288L73.862 35.3761C74.0007 35.4294 74.1422 35.4801 74.281 35.5362L74.6359 35.675L74.9988 35.5575L79.0659 34.2339L80.0027 33.9296L79.7732 32.9716C78.9512 29.5343 78.1159 25.8354 77.3099 22.2567C76.5013 18.6726 75.6633 14.9631 74.8387 11.5151L74.6439 10.6958H64.2439L61.9702 1.14449L61.7754 0.325195Z" fill="#E0563F"/>
<path d="M11.0512 24.3062C9.76487 23.0306 9.13772 22.3554 7.91545 20.893C7.47512 20.3832 7.323 19.7054 7.48312 18.8194C7.59521 18.2109 7.64858 17.904 7.76067 17.2955C7.99285 16.0172 8.92156 15.1312 10.0718 15.1312C11.27 15.1312 11.8678 15.1312 13.0661 15.1312C14.2163 15.1312 14.8701 15.9131 14.6806 17.042C14.5472 17.8346 14.4805 18.2323 14.3497 19.0249C13.4157 19.0862 12.9486 19.1183 12.0146 19.1823C12.1374 18.4778 12.1987 18.1255 12.3215 17.421C12.3322 17.3649 12.2975 17.3462 12.2601 17.3489C11.3955 17.3836 10.9631 17.3996 10.0985 17.437C10.0424 17.437 10.0211 17.4583 10.0104 17.5197C9.91432 18.0641 9.86361 18.3363 9.76754 18.8808C9.7542 18.9608 9.76487 18.9982 9.81024 19.0542C11.0325 20.5247 11.6597 21.2052 12.9486 22.4915C13.3943 22.9425 13.5971 23.519 13.4664 24.3009C13.3516 24.9841 13.2956 25.3257 13.1808 26.0116C12.9887 27.1564 12.0119 28.1065 10.7763 28.3787C9.49 28.6589 8.84684 28.8084 7.56318 29.1206C6.33291 29.4195 5.67374 28.7523 5.91125 27.4527C6.07404 26.5533 6.15677 26.105 6.31956 25.2083C7.27496 25.0321 7.75533 24.9467 8.7134 24.7839C8.57996 25.5258 8.51591 25.8968 8.38248 26.6387C8.37447 26.6787 8.38782 26.7134 8.44653 26.7027C9.35122 26.5186 9.8049 26.4305 10.7123 26.2624C10.7496 26.2544 10.795 26.209 10.803 26.1717L11.0992 24.469C11.1126 24.3943 11.0805 24.3623 11.0512 24.3116V24.3062ZM20.1168 26.6734C18.8198 26.8629 18.1713 26.967 16.877 27.1885C15.6334 27.402 14.9288 26.8015 15.1076 25.6886C15.6734 22.1819 16.2365 18.6753 16.8023 15.1686C17.715 15.1686 18.1713 15.1686 19.084 15.1686C18.5823 18.4671 18.0833 21.7656 17.5842 25.0642C17.5789 25.0989 17.5922 25.1309 17.6509 25.1202C18.5636 24.9921 19.02 24.9307 19.9327 24.8133C19.9727 24.808 20.0154 24.7706 20.0207 24.7386C20.4691 21.5495 20.9174 18.3577 21.3658 15.1686C22.2785 15.1686 22.7348 15.1686 23.6475 15.1686C23.2419 18.3443 22.8362 21.5174 22.4279 24.6932C22.2998 25.6993 21.3604 26.4946 20.1141 26.6787L20.1168 26.6734ZM29.2225 25.6193C28.7955 24.0314 28.59 23.2308 28.1977 21.6108C27.752 21.6349 27.5278 21.6482 27.0821 21.6776C26.914 23.3428 26.8286 24.1781 26.6605 25.8434C25.6677 25.9395 25.1714 25.9929 24.1813 26.1076C24.6083 22.4595 25.0326 18.8114 25.4596 15.1632C27.4237 15.1632 28.4058 15.1632 30.3727 15.1632C31.5229 15.1632 32.2675 15.7957 32.2061 16.7057C32.1233 17.9814 32.0806 18.6192 31.9952 19.8949C31.9472 20.6448 31.3734 21.2212 30.4741 21.4374C30.9945 23.0519 31.264 23.8526 31.8298 25.4404C30.7863 25.5018 30.2659 25.5365 29.2251 25.6193H29.2225ZM27.2583 19.9215C28.1763 19.8788 28.6353 19.8602 29.5534 19.8255C29.5907 19.8255 29.6308 19.8068 29.6334 19.7641C29.7295 18.6352 29.7749 18.0695 29.871 16.9379C29.8736 16.8926 29.8389 16.8792 29.8016 16.8792C28.9049 16.8926 28.4565 16.8979 27.5598 16.9139C27.4371 18.1175 27.3784 18.718 27.2556 19.9189L27.2583 19.9215ZM35.9049 25.2616C35.0162 21.9177 34.2103 18.5498 33.4924 15.1606C34.4505 15.1606 34.9282 15.1606 35.8836 15.1606C36.46 17.888 36.7669 19.241 37.4261 21.9471C37.4474 22.0912 37.4554 22.1633 37.4768 22.3047C37.5035 22.1606 37.5168 22.0885 37.5408 21.9444C38.2987 19.2223 38.6564 17.8666 39.3342 15.1579C40.2923 15.1579 40.77 15.1579 41.7254 15.1579C40.8634 18.5311 39.9213 21.8804 38.9099 25.2056C37.7063 25.2136 37.1058 25.2243 35.9049 25.259V25.2616ZM43.2118 25.2456C43.1184 21.8831 43.025 18.5205 42.9316 15.1579C43.8443 15.1579 44.3007 15.1579 45.2134 15.1579C45.3735 18.5472 45.5363 21.9391 45.6991 25.3284C44.7037 25.2857 44.2073 25.2696 43.2118 25.243V25.2456ZM49.977 25.5819C48.7388 22.1286 47.5405 18.6539 46.4036 15.1606C47.3617 15.1606 47.8394 15.1606 48.7948 15.1606C49.6835 17.9654 50.1478 19.3825 51.1166 22.2673C51.1539 22.4195 51.1726 22.4942 51.21 22.6463C51.2207 22.4969 51.2233 22.4221 51.234 22.2727C51.6797 19.4705 51.8798 18.0508 52.2481 15.1606C53.2062 15.1606 53.6839 15.1606 54.6393 15.1606C54.1749 18.7366 53.6252 22.2967 52.9767 25.8381C51.7784 25.7207 51.178 25.67 49.977 25.5819ZM62.584 27.1484C61.2897 26.9296 60.6412 26.8255 59.3442 26.6387C58.1166 26.4599 57.1799 25.6673 57.0518 24.6639C56.6542 21.5201 56.454 19.9482 56.0537 16.8045C55.9283 15.8171 56.6275 15.1312 57.759 15.1312C58.9573 15.1312 59.555 15.1312 60.7533 15.1312C61.9515 15.1312 62.8109 15.8891 62.9843 16.978C63.4487 19.8708 63.9131 22.7637 64.3747 25.6539C64.5535 26.7615 63.8277 27.3593 62.584 27.1484ZM60.6305 17.1141C59.7632 17.0874 59.3309 17.0767 58.4662 17.0527C58.4102 17.0527 58.3942 17.066 58.4022 17.1167C58.8265 20.1537 59.0373 21.6722 59.4616 24.7066C59.467 24.7386 59.491 24.7759 59.5497 24.7813C60.4624 24.896 60.9214 24.9574 61.8315 25.0855C61.8715 25.0908 61.9035 25.0615 61.8982 25.0295C61.4258 21.8911 61.1883 20.3219 60.7133 17.1834C60.7053 17.1327 60.6652 17.1141 60.6305 17.1141ZM71.5963 28.9525C70.6569 26.6681 70.1952 25.5552 69.2825 23.3775C68.8395 23.3135 68.618 23.2841 68.175 23.2227C68.5326 25.283 68.7114 26.3131 69.0663 28.3734C68.0869 28.1572 67.5959 28.0558 66.6111 27.8583C65.9066 23.6257 65.1994 19.3958 64.4948 15.1632C66.459 15.1632 67.4411 15.1632 69.4079 15.1659C70.5581 15.1659 71.5029 16.0492 71.735 17.3222C72.058 19.1049 72.2208 19.9936 72.5463 21.7763C72.7358 22.8224 72.3489 23.5243 71.5162 23.6284C72.5544 25.9422 73.0827 27.1324 74.1529 29.585C73.1308 29.3208 72.6184 29.1927 71.5936 28.9471L71.5963 28.9525ZM67.8014 21.0531C68.7141 21.1465 69.1704 21.1945 70.0831 21.2959C70.1205 21.3013 70.1552 21.2853 70.1445 21.2265C69.8803 19.7401 69.7469 18.9955 69.4827 17.509C69.472 17.4503 69.432 17.429 69.3946 17.4263C68.5006 17.3889 68.0522 17.3703 67.1582 17.3356C67.4171 18.822 67.5452 19.5666 67.8014 21.0531ZM23.442 11.3683C22.7455 11.3683 22.3986 11.3683 21.702 11.3683C21.0429 11.3683 20.6345 10.92 20.7013 10.2661C20.9148 8.21391 21.0215 7.18645 21.2323 5.13421C21.299 4.48838 21.7848 4.04004 22.4172 4.04004H24.0905C24.7337 4.04004 25.134 4.48838 25.0833 5.13421C25.0459 5.58789 25.0272 5.81473 24.9899 6.26841H23.6982C23.7329 5.88145 23.7489 5.68663 23.7836 5.29967C23.7863 5.26765 23.7676 5.25964 23.7463 5.25964H22.5453C22.5133 5.25964 22.5026 5.27032 22.5 5.29967C22.3132 7.22381 22.2224 8.18455 22.0356 10.1087C22.0356 10.13 22.041 10.1514 22.073 10.1514C22.5667 10.1514 22.8122 10.1514 23.3059 10.1514C23.3273 10.1514 23.3513 10.13 23.3513 10.1087C23.4073 9.47888 23.4367 9.16664 23.4927 8.53682H22.7722C22.8175 8.05912 22.8389 7.81894 22.8843 7.33857H24.8991C24.8031 8.50746 24.755 9.09191 24.659 10.2635C24.6056 10.92 24.1119 11.3657 23.442 11.3657V11.3683ZM29.0063 11.347C28.7714 10.2101 28.6567 9.64167 28.4298 8.5048H27.8241C27.7493 9.64167 27.712 10.2101 27.6372 11.347H26.3109C26.5244 8.43274 26.6311 6.97562 26.842 4.06139H29.5854C30.2286 4.06139 30.6449 4.50973 30.6102 5.15556C30.5621 6.06025 30.5408 6.51127 30.4928 7.41329C30.4661 7.94437 30.1512 8.33934 29.6655 8.46476C29.951 9.61765 30.0978 10.1941 30.3967 11.347H29.0063ZM27.9041 7.30921H29.1611C29.1824 7.30921 29.2038 7.29854 29.2064 7.26651C29.2518 6.47924 29.2758 6.08694 29.3212 5.29967C29.3212 5.26765 29.3025 5.25964 29.2812 5.25964H28.0375C27.9842 6.07894 27.9575 6.48992 27.9014 7.30921H27.9041ZM32.0326 11.347C32.1554 8.43274 32.2168 6.97562 32.3422 4.06139H33.6178C33.5137 6.97562 33.463 8.43274 33.3616 11.347H32.0353H32.0326ZM37.9545 11.347C36.8123 11.347 36.2412 11.347 35.099 11.347C35.1764 8.43274 35.211 6.97562 35.2884 4.06139H38.0319C38.675 4.06139 39.11 4.50973 39.1074 5.15556C39.0967 7.19179 39.094 8.20857 39.0833 10.2448C39.0807 10.9013 38.6217 11.347 37.9518 11.347H37.9545ZM37.7677 10.1087C37.7917 8.18455 37.8024 7.22381 37.8237 5.29967C37.8237 5.26765 37.8024 5.25964 37.7837 5.25964H36.5401C36.5027 7.21581 36.484 8.19522 36.4467 10.1514H37.7223C37.7437 10.1514 37.765 10.13 37.765 10.1087H37.7677ZM40.8314 11.347C40.818 8.43274 40.81 6.97562 40.7967 4.06139H42.0723C42.107 6.97562 42.123 8.43274 42.1577 11.347H40.8314ZM46.5958 11.347C46.2542 10.2101 46.0861 9.64167 45.7525 8.5048H45.1467C45.1787 9.64167 45.1947 10.2101 45.2267 11.347C44.6957 11.347 44.4315 11.347 43.9004 11.347C43.839 8.43274 43.807 6.97562 43.7456 4.06139H46.489C47.1322 4.06139 47.5885 4.50973 47.6179 5.15556C47.6553 6.06025 47.6766 6.51127 47.714 7.41329C47.7353 7.94437 47.4604 8.33934 46.9854 8.46476C47.3804 9.61765 47.5805 10.1941 47.9862 11.347H46.5958ZM45.112 7.30921H46.3689C46.3903 7.30921 46.409 7.29854 46.409 7.26651C46.3823 6.47924 46.3663 6.08694 46.3396 5.29967C46.3396 5.26765 46.3182 5.25964 46.2969 5.25964H45.0533C45.0773 6.07894 45.088 6.48992 45.112 7.30921ZM52.4776 11.3683H50.7376C50.0784 11.3683 49.6007 10.92 49.5661 10.2661C49.4593 8.21391 49.4059 7.18645 49.3019 5.13421C49.2698 4.48838 49.6835 4.04004 50.316 4.04004H51.9892C52.6324 4.04004 53.1021 4.48838 53.1501 5.13421C53.2996 7.18645 53.3743 8.21391 53.5238 10.2661C53.5718 10.9226 53.1475 11.3683 52.4776 11.3683ZM51.8318 5.25964H50.6309C50.5988 5.25964 50.5908 5.27032 50.5908 5.29967C50.7029 7.22381 50.7616 8.18455 50.8737 10.1087C50.8737 10.13 50.8871 10.1514 50.9191 10.1514H52.1547C52.1761 10.1514 52.1947 10.13 52.1947 10.1087C52.0693 8.18455 52.0053 7.22381 51.8772 5.29967C51.8772 5.26765 51.8531 5.25964 51.8345 5.25964H51.8318ZM58.1219 11.347C57.38 9.66035 57.0171 8.81703 56.3019 7.13308C56.2832 7.07437 56.2752 7.04501 56.2565 6.9863C56.4113 8.73164 56.4914 9.60164 56.6461 11.347H55.3411C55.101 8.43274 54.9809 6.97562 54.7407 4.06139H56.0964C56.7049 5.55053 57.0118 6.29777 57.6389 7.78691C57.6576 7.84829 57.6656 7.88032 57.6843 7.9417C57.5348 6.38851 57.4601 5.61191 57.308 4.05872H58.5623C58.8638 6.97295 59.016 8.43007 59.3175 11.3443H58.1193L58.1219 11.347Z" fill="white"/>
</g>
<defs>
<clipPath id="clip0_173_32535">
<rect width="80" height="35.3498" fill="white" transform="translate(0 0.325195)"/>
</clipPath>
</defs>
</svg>
