<?xml version="1.0" encoding="utf-8"?>
<svg viewBox="0.5322 0.981 1000 1333.3323" width="1000px" height="1333.332px" xmlns="http://www.w3.org/2000/svg">
  <defs>
    <clipPath id="clip0_103_988">
      <rect width="46.4681" height="60.3482" fill="white" transform="translate(0.532227 0.980957)"/>
    </clipPath>
  </defs>
  <g clip-path="url(#clip0_103_988)" transform="matrix(21.748836517333984, 0, 0, 22.094079971313477, -11.04308795928955, -20.6923828125)">
    <path d="M23.522 46.9605C36.2189 46.9605 46.5117 36.6676 46.5117 23.9707C46.5117 11.2738 36.2189 0.980957 23.522 0.980957C10.8251 0.980957 0.532227 11.2738 0.532227 23.9707C0.532227 36.6676 10.8251 46.9605 23.522 46.9605Z" fill="#4C6EF5"/>
    <path d="M0.532227 22.0547C13.7582 22.0547 24.4799 32.7764 24.4799 46.0024V61.3289H0.532227V22.0547Z" fill="#FCC419"/>
    <path fill-rule="evenodd" clip-rule="evenodd" d="M0.610916 22.0547H12.4103C19.0761 22.0547 24.4799 27.4584 24.4799 34.1243V46.9407C24.1622 46.9537 23.8429 46.9603 23.522 46.9603C10.8251 46.9603 0.532227 36.6674 0.532227 23.9705C0.532227 23.3254 0.558801 22.6864 0.610916 22.0547Z" fill="#3BC9DB"/>
  </g>
</svg>